<?xml version="1.0" encoding="UTF-8"?>
<svg width="1616px" height="356px" viewBox="0 0 1616 356" version="1.1" xmlns="http://www.w3.org/2000/svg" xmlns:xlink="http://www.w3.org/1999/xlink">
    <title>happynurse-logo</title>
    <g id="Page-1" stroke="none" stroke-width="1" fill="none" fill-rule="evenodd">
        <g id="happynurse-logo" transform="translate(0.730000, 0.850000)" fill-rule="nonzero">
            <g id="Group" transform="translate(0.000000, 111.640000)">
                <g transform="translate(1380.830000, 0.000000)">
                    <circle id="Oval" fill="#51B5E0" cx="116.86" cy="116.86" r="116.86"></circle>
                    <g transform="translate(53.823495, 39.178946)" fill="#FFFFFF">
                        <path d="M25.5065049,137.611054 C30.4265049,137.611054 34.2965049,133.141054 33.2665049,128.051054 C32.6465049,124.971054 30.1465049,122.501054 27.0665049,121.911054 C22.0065049,120.951054 17.5865049,124.801054 17.5865049,129.691054 C17.5865049,134.061054 21.1265049,137.611054 25.5065049,137.611054" id="Path"></path>
                        <path d="M116.696505,13.8410543 C113.076505,6.60105432 106.226505,1.54105432 98.3565049,0.30105432 C91.8765049,-0.72894568 85.3365049,0.95105432 79.4465049,5.03105432 C79.0765049,5.10105432 78.7065049,5.17105432 78.3165049,5.28105432 C76.7165049,5.74105432 75.1365049,6.27105432 73.7065049,7.19105432 C71.0965049,8.86105432 70.4665049,10.0810543 71.0465049,12.9210543 C71.2765049,14.0710543 71.6865049,15.2210543 72.2965049,16.1910543 C73.6265049,18.2810543 74.9065049,20.4310543 76.8665049,22.0610543 C77.3665049,22.4810543 77.9065049,22.8610543 78.4465049,23.2410543 C80.9565049,24.9210543 84.0865049,23.7910543 85.6365049,21.6710543 C86.3565049,20.6810543 87.0265049,19.6710543 87.6065049,18.6010543 C88.5465049,16.8610543 89.7465049,15.2610543 91.1065049,13.8210543 C91.3065049,13.6110543 91.5165049,13.3910543 91.7165049,13.1710543 C93.2765049,12.7710543 94.8365049,12.6810543 96.3665049,12.9210543 C100.106505,13.5110543 103.506505,16.0510543 105.256505,19.5410543 C109.716505,28.4710543 108.876505,37.8110543 102.386505,51.7810543 C95.6265049,66.3210543 74.5365049,84.6010543 66.3165049,86.8210543 C58.0965049,84.6010543 36.9965049,66.3210543 30.2365049,51.7810543 C23.7465049,37.8110543 22.9165049,28.4710543 27.3765049,19.5510543 C29.1265049,16.0510543 32.5265049,13.5110543 36.2665049,12.9210543 C37.7865049,12.6810543 39.3265049,12.7710543 40.8765049,13.1610543 C41.2165049,13.5210543 41.5465049,13.8810543 41.8765049,14.2210543 C42.9065049,15.2810543 43.8165049,16.4610543 44.5065049,17.7610543 C45.2465049,19.1510543 46.0465049,20.4110543 46.9665049,21.6610543 C48.5265049,23.7810543 51.6465049,24.9110543 54.1565049,23.2310543 C54.6965049,22.8510543 55.2365049,22.4710543 55.7365049,22.0510543 C57.6965049,20.4210543 58.9765049,18.2710543 60.2965049,16.1810543 C60.9065049,15.2110543 61.3165049,14.0510543 61.5465049,12.9110543 C62.1265049,10.0710543 61.4965049,8.85105432 58.8865049,7.18105432 C57.4665049,6.26105432 55.8765049,5.73105432 54.2765049,5.27105432 C53.8965049,5.16105432 53.5465049,5.10105432 53.1965049,5.03105432 C47.2965049,0.95105432 40.7665049,-0.72894568 34.2765049,0.29105432 C26.4165049,1.53105432 19.5565049,6.59105432 15.9365049,13.8310543 C9.60650492,26.5010543 10.4165049,39.4610543 18.6365049,57.1610543 C24.9665049,70.7710543 45.0165049,91.9210543 60.1765049,98.0510543 L60.1765049,143.511054 C60.1765049,147.051054 57.6665049,151.021054 54.2965049,151.021054 C49.8365049,151.021054 46.9265049,150.071054 43.7665049,147.401054 C49.1765049,141.831054 52.0765049,133.811054 50.5765049,125.171054 C48.7565049,114.651054 40.6465049,106.481054 30.1365049,104.611054 C13.0165049,101.561054 -1.79349508,115.761054 0.176504919,132.721054 C1.33650492,142.691054 8.48650492,151.011054 18.0565049,154.011054 C23.1465049,155.601054 27.9865049,155.431054 32.3865049,154.191054 C38.9165049,160.991054 45.3165049,163.801054 54.2965049,163.801054 C65.4565049,163.801054 72.9565049,153.311054 72.9565049,143.511054 L72.9565049,97.8310543 C88.0565049,91.4310543 107.716505,70.6110543 113.966505,57.1610543 C122.216505,39.4810543 123.026505,26.5210543 116.696505,13.8410543 Z M27.5265049,144.981054 C16.8865049,146.331054 8.05650492,136.841054 10.5065049,126.081054 C11.8065049,120.351054 16.3165049,115.891054 22.0565049,114.641054 C32.7665049,112.321054 42.1265049,121.121054 40.8065049,131.691054 C39.9465049,138.561054 34.3965049,144.111054 27.5265049,144.981054 Z" id="Shape"></path>
                    </g>
                </g>
                <g transform="translate(0.000000, 6.300000)" fill="#173F66">
                    <path d="M128.29,0.01 L114.03,0.01 C109.33,0.01 105.53,3.82 105.53,8.51 L105.53,70.5 C105.53,71.9 104.39,73.04 102.99,73.04 L34.04,73.04 C32.64,73.04 31.5,71.9 31.5,70.5 L31.5,8.51 C31.5,3.81 27.69,0.01 23,0.01 L8.75,0.01 C2.25,0.01 -2.84217094e-14,2.26 -2.84217094e-14,8.51 L-2.84217094e-14,169.08 C-2.84217094e-14,175.33 2.25,177.58 8.75,177.58 L23,177.58 C27.7,177.58 31.5,173.77 31.5,169.08 L31.5,104.84 C31.5,103.44 32.64,102.3 34.04,102.3 L103,102.3 C104.4,102.3 105.54,103.44 105.54,104.84 L105.54,169.08 C105.54,173.78 109.35,177.58 114.04,177.58 L128.3,177.58 C134.8,177.58 137.05,175.33 137.05,169.08 L137.05,8.51 C137.04,2.26 134.79,0.01 128.29,0.01 Z" id="Path"></path>
                    <path d="M218.31,44.27 C192.3,44.27 175.04,54.02 166.54,70.28 C163.54,76.03 165.29,79.03 170.79,81.53 L180.79,85.78 C186.54,88.03 188.04,87.28 191.54,82.03 C196.79,74.03 205.3,70.02 217.8,70.02 C236.56,70.02 242.81,79.02 242.81,94.78 L242.81,99.06 C242.81,100.54 241.56,101.7 240.08,101.59 C235.06,101.21 226.84,100.53 218.8,100.53 C178.78,100.53 162.03,110.78 162.03,140.8 C162.03,166.81 173.53,181.32 217.8,181.32 C238.31,181.32 253.57,178.82 262.82,174.82 C269.82,171.82 271.820006,169.32 271.820006,160.56 L271.820006,95.78 C271.83,66.28 259.33,44.27 218.31,44.27 Z M242.82,151.82 C242.82,154.07 242.07,154.57 240.07,155.32 C235.57,156.32 227.81,157.32 215.06,157.32 C195.55,157.32 191.55,150.82 191.55,140.56 C191.55,130.3 196.55,124.3 215.56,124.3 C224.05,124.3 234.42,125.06 240.44,125.42 C241.78,125.5 242.82,126.61 242.82,127.96 L242.82,151.82 Z" id="Shape"></path>
                    <path d="M356.36,44.27 C333.1,44.27 318.09,47.77 307.84,51.52 C299.84,54.77 298.08,57.77 298.08,65.77 L298.08,224.84 C298.08,229.12 301.55,232.59 305.83,232.59 L319.59,232.59 C323.73,232.59 327.09,229.23 327.09,225.09 L327.09,180.11 C327.09,178.44 328.66,177.23 330.27,177.65 C336.62,179.32 344.63,181.31 353.35,181.31 C391.12,181.31 409.120004,162.55 409.120004,129.04 L409.120004,94.78 C409.13,62.78 392.37,44.27 356.36,44.27 Z M380.12,128.06 C380.12,146.07 371.12,154.82 351.36,154.82 C342.63,154.82 334.69,153.02 329,151.56 C327.88,151.27 327.1,150.26 327.1,149.1 L327.1,76.79 C327.1,75.04 327.6,74.29 329.6,73.54 C335.85,71.79 342.86,70.79 352.11,70.79 C370.37,70.79 380.12,79.29 380.12,95.55 L380.12,128.06 Z" id="Shape"></path>
                    <path d="M491.9,44.27 C468.64,44.27 453.63,47.77 443.38,51.52 C435.38,54.77 433.62,57.77 433.62,65.77 L433.62,224.84 C433.62,229.12 437.09,232.59 441.37,232.59 L455.13,232.59 C459.27,232.59 462.63,229.23 462.63,225.09 L462.63,180.11 C462.63,178.44 464.2,177.23 465.81,177.65 C472.16,179.32 480.17,181.31 488.89,181.31 C526.66,181.31 544.660004,162.55 544.660004,129.04 L544.660004,94.78 C544.67,62.78 527.92,44.27 491.9,44.27 Z M515.66,128.06 C515.66,146.07 506.66,154.82 486.9,154.82 C478.17,154.82 470.23,153.02 464.54,151.56 C463.42,151.27 462.64,150.26 462.64,149.1 L462.64,76.79 C462.64,75.04 463.14,74.29 465.14,73.54 C471.39,71.79 478.4,70.79 487.65,70.79 C505.91,70.79 515.66,79.29 515.66,95.55 L515.66,128.06 Z" id="Shape"></path>
                    <path d="M671.96,48.03 L658.2,48.03 C653.92,48.03 650.45,51.5 650.45,55.78 L650.45,143.09 C650.45,144.26 649.65,145.28 648.51,145.56 C642.09,147.13 634.21,148.57 624.68,148.57 C606.42,148.57 597.42,140.57 597.42,123.81 L597.42,55.53 C597.42,51.39 594.06,48.03 589.92,48.03 L576.17,48.03 C571.89,48.03 568.42,51.5 568.42,55.78 L568.42,124.81 C568.42,156.32 584.93,175.08 620.69,175.08 C631.39,175.08 640.18,173.75 647.39,172.24 C648.97,171.91 650.45,173.11 650.45,174.72 L650.45,183.33 C650.45,201.09 641.45,210.34 623.94,210.34 C610.43,210.34 602.93,205.84 597.68,197.59 C593.93,192.34 591.18,191.59 585.17,194.59 L575.67,199.84 C569.67,202.84 568.92,206.84 572.42,212.34 C581.42,227.1 597.43,236.35 624.44,236.35 C663.71,236.35 679.460022,214.59 679.460022,181.83 L679.460022,55.53 C679.47,51.39 676.11,48.03 671.96,48.03 Z" id="Path"></path>
                    <path d="M842.02,0.01 L828.77,0.01 C824.07,0.01 820.27,3.82 820.27,8.51 L820.27,86.04 C820.27,93.48 820.32,100.59 820.39,106.99 C820.42,109.5 817.17,110.52 815.75,108.45 L746.23,6.98 L743.71,3.13 C741.96,0.63 738.73,0 734.23,0 L719.97,0 C713.47,0 711.22,2.25 711.22,8.5 L711.22,169.07 C711.22,175.32 713.47,177.57 719.97,177.57 L733.23,177.57 C737.93,177.57 741.73,173.76 741.73,169.07 L741.73,90.54 C741.73,83.21 741.92,74.46 741.96,66.22 C741.97,63.67 745.31,62.73 746.66,64.89 C749.73,69.83 753.54,75.73 758.24,82.78 L819.52,173.32 C821.52,176.57 823.52,177.57 827.77,177.57 L842.03,177.57 C848.53,177.57 850.53,175.32 850.53,169.07 L850.53,8.51 C850.53,2.26 848.53,0.01 842.02,0.01 Z" id="Path"></path>
                    <path d="M983.57,48.03 L969.81,48.03 C965.53,48.03 962.06,51.5 962.06,55.78 L962.06,147.57 C962.06,149.57 961.56,151.07 959.31,151.82 C952.56,153.82 946.06,154.82 936.3,154.82 C918.04,154.82 909.04,146.82 909.04,130.06 L909.04,55.53 C909.04,51.39 905.68,48.03 901.54,48.03 L887.78,48.03 C883.5,48.03 880.03,51.5 880.03,55.78 L880.03,131.06 C880.03,162.57 896.54,181.33 932.3,181.33 C956.06,181.33 971.32,176.58 981.32,172.58 C989.32,169.33 991.07,166.33 991.07,158.57 L991.07,55.53 C991.07,51.39 987.71,48.03 983.57,48.03 Z" id="Path"></path>
                    <path d="M1083.35,44.27 L1075.35,44.27 C1053.09,44.77 1038.08,48.27 1028.83,51.77 C1020.83,55.02 1019.07,58.02 1019.07,66.03 L1019.07,169.82 C1019.07,174.1 1022.54,177.57 1026.82,177.57 L1040.58,177.57 C1044.72,177.57 1048.08,174.21 1048.08,170.07 L1048.08,76.78 C1048.08,75.53 1048.33,74.28 1050.58,73.78 C1057.08,71.78 1064.59,70.78 1074.34,70.78 L1083.34,70.78 C1087.62,70.78 1091.09004,67.31 1091.09004,63.03 L1091.09004,52.02 C1091.1,46.02 1089.1,44.27 1083.35,44.27 Z" id="Path"></path>
                    <path d="M1159.87,99.3 C1140.61,97.55 1130.61,95.55 1130.61,83.79 C1130.61,74.79 1137.86,70.28 1154.12,70.28 C1170.13,70.28 1176.88,75.78 1181.13,83.28 C1184.38,88.53 1186.13,89.28 1191.64,86.78 L1202.89,82.28 C1208.39,79.78 1209.89,76.78 1206.89,71.03 C1198.89,54.77 1182.38,44.27 1153.37,44.27 C1118.86,44.27 1101.85,60.78 1101.85,84.54 C1101.85,117.05 1127.86,122.3 1152.37,124.81 C1172.63,126.81 1182.38,129.06 1182.38,140.82 C1182.38,150.57 1173.63,155.58 1155.87,155.58 C1140.61,155.58 1131.61,151.58 1127.61,141.82 C1125.11,136.07 1122.36,135.32 1117.36,137.07 L1106.11,140.57 C1100.36,142.57 1099.11,145.82 1101.11,151.07 C1108.61,170.58 1127.37,181.33 1156.88,181.33 C1192.39,181.33 1210.9,164.07 1210.9,139.56 C1210.9,109.05 1189.64,102.3 1159.87,99.3 Z" id="Path"></path>
                    <path d="M1332.94,122.06 C1341.69,122.06 1344.19,117.81 1344.19,111.31 L1344.19,96.05 C1344.19,67.29 1326.18,44.28 1286.41,44.28 C1248.64,44.28 1228.39,63.54 1228.39,98.3 L1228.39,127.81 C1228.39,158.57 1244.9,181.33 1285.92,181.33 C1314.18,181.33 1330.94,172.08 1339.94,157.32 C1343.44,151.82 1342.69,147.57 1336.94,144.82 L1328.19,140.07 C1322.19,136.82 1319.43,137.57 1315.43,143.07 C1310.18,151.32 1300.67,156.33 1285.92,156.33 C1267.66,156.33 1257.41,147.58 1257.41,131.32 L1257.41,124.61 C1257.41,123.21 1258.55,122.07 1259.95,122.07 L1332.94,122.07 L1332.94,122.06 Z M1257.41,94.3 C1257.41,78.04 1267.66,68.79 1286.42,68.79 C1305.43,68.79 1315.18,78.04 1315.18,94.3 L1315.18,97.26 C1315.18,98.66 1314.04,99.8 1312.64,99.8 L1259.95,99.8 C1258.55,99.8 1257.41,98.66 1257.41,97.26 L1257.41,94.3 Z" id="Shape"></path>
                </g>
            </g>
            <g id="Group" transform="translate(246.941780, -0.000000)" fill="#51B5E0">
                <path d="M32.9182201,0 L25.9182201,0 C22.8482201,0 21.4782201,1.02 20.9682201,4.1 L0.138220076,122.27 C-0.371779924,125.34 0.478220076,126.37 3.54822008,126.37 L10.5482201,126.37 C13.6182201,126.37 14.8182201,125.35 15.4982201,122.27 L36.1582201,4.1 C36.8482201,1.03 35.9982201,0 32.9182201,0 Z" id="Path"></path>
                <path d="M63.3182201,38.25 L56.1482201,38.25 C53.0782201,38.25 51.8782201,39.27 51.3682201,42.35 L37.3682201,122.27 C36.6882201,125.34 37.5382201,126.37 40.6082201,126.37 L47.7782201,126.37 C50.6782201,126.37 52.0482201,125.35 52.5582201,122.27 L66.5582201,42.35 C67.0782201,39.28 66.3882201,38.25 63.3182201,38.25 Z" id="Path"></path>
                <path d="M65.8782201,5.98 L64.8582201,5.98 C58.7082201,5.98 56.3182201,8.03 55.1282201,14.18 L55.1282201,15.55 C53.9382201,21.87 55.4682201,23.75 61.7882201,23.75 L62.8082201,23.75 C68.9582201,23.75 71.3482201,21.7 72.5382201,15.55 L72.5382201,14.18 C73.7382201,8.03 72.0282201,5.98 65.8782201,5.98 Z" id="Path"></path>
                <path d="M124.45822,35.69 C99.6982201,35.69 83.6482201,48.33 79.5482201,70.53 L75.7882201,91.87 C71.8582201,112.53 80.5682201,128.93 107.20822,128.93 C126.84822,128.93 138.96822,122.27 146.82822,112.02 C149.21822,109.12 149.04822,107.07 146.48822,105.36 L142.38822,102.63 C139.65822,100.75 137.94822,101.43 135.38822,104.34 C129.92822,111.34 121.72822,115.61 109.59822,115.61 C94.5682201,115.61 88.0782201,108.27 90.2982201,95.12 L91.2082201,90.24 C91.4582201,88.89 92.7382201,87.97 94.0982201,88.2 C101.15822,89.35 108.87822,90.17 115.91822,90.17 C139.31822,90.17 153.48822,83 156.89822,66.78 C160.82822,47.82 147.50822,35.69 124.45822,35.69 Z M142.04822,64.9 C139.99822,73.95 131.62822,78.39 117.96822,78.39 C111.22822,78.39 103.65822,77.7 96.2582201,76.33 C94.8582201,76.07 93.9382201,74.74 94.2082201,73.34 L94.7482201,70.53 C97.3082201,57.04 107.55822,48.67 122.23822,48.67 C137.09822,48.67 144.43822,54.48 142.04822,64.9 Z" id="Shape"></path>
                <path d="M246.04822,38.25 L240.40822,38.25 C235.45822,38.25 234.25822,39.1 232.20822,42.35 L203.85822,91.87 C201.34822,96.35 198.61822,101.04 196.74822,104.2 C195.91822,100.98 194.65822,96.2 193.78822,91.7 L182.52822,42.35 C182.01822,39.1 180.81822,38.25 176.03822,38.25 L171.08822,38.25 C167.15822,38.25 166.13822,39.27 166.81822,43.03 L185.76822,122.95 C186.27822,125.86 187.64822,126.71 190.71822,126.71 L194.98822,126.71 C198.23822,126.71 199.59822,125.86 201.30822,122.95 L248.43822,42.86 C250.65822,39.11 249.80822,38.25 246.04822,38.25 Z" id="Path"></path>
                <path d="M296.42822,35.69 C271.66822,35.69 255.61822,48.33 251.51822,70.53 L247.75822,91.87 C243.82822,112.53 252.53822,128.93 279.17822,128.93 C298.81822,128.93 310.93822,122.27 318.79822,112.02 C321.18822,109.12 321.01822,107.07 318.45822,105.36 L314.35822,102.63 C311.62822,100.75 309.91822,101.43 307.35822,104.34 C301.89822,111.34 293.69822,115.61 281.56822,115.61 C266.53822,115.61 260.04822,108.27 262.26822,95.12 L263.17822,90.24 C263.42822,88.89 264.70822,87.97 266.06822,88.2 C273.12822,89.35 280.84822,90.17 287.88822,90.17 C311.28822,90.17 325.45822,83 328.86822,66.78 C332.80822,47.82 319.48822,35.69 296.42822,35.69 Z M314.01822,64.9 C311.96822,73.95 303.59822,78.39 289.93822,78.39 C283.19822,78.39 275.62822,77.7 268.22822,76.33 C266.82822,76.07 265.90822,74.74 266.17822,73.34 L266.71822,70.53 C269.27822,57.04 279.52822,48.67 294.20822,48.67 C309.06822,48.67 316.41822,54.48 314.01822,64.9 Z" id="Shape"></path>
                <path d="M393.60822,35.69 L388.14822,35.69 C373.11822,36.03 362.70822,38.59 356.04822,40.98 C350.23822,43.2 348.70822,45.25 347.67822,50.54 L335.20822,122.26 C334.52822,125.33 335.54822,126.36 338.44822,126.36 L345.61822,126.36 C348.68822,126.36 349.88822,125.34 350.39822,122.26 L362.00822,56 C362.34822,54.46 362.85822,53.44 364.90822,52.59 C370.19822,51.05 376.85822,49.69 385.39822,49.69 L391.20822,49.69 C394.27822,49.69 395.30822,48.67 395.98822,45.59 L397.00822,39.78 C397.52822,36.72 396.50822,35.69 393.60822,35.69 Z" id="Path"></path>
            </g>
        </g>
    </g>
</svg>